P3
# Created by GIMP version 2.10.36 PNM plug-in
16 16
255
0
66
74
0
66
74
0
66
74
0
66
74
0
0
0
0
0
0
0
0
0
0
0
0
0
66
74
0
66
74
0
66
74
0
66
74
0
66
74
0
66
74
0
66
74
0
66
74
0
66
74
0
66
74
0
66
74
0
0
0
156
74
0
156
74
0
156
74
0
156
74
0
0
0
0
0
66
74
0
66
74
0
66
74
0
66
74
0
66
74
0
66
74
0
66
74
0
66
74
0
66
74
0
0
0
156
74
0
231
156
33
231
156
33
231
156
33
156
74
0
156
74
0
0
0
0
0
0
0
0
66
74
0
66
74
0
66
74
0
66
74
0
66
74
0
66
74
0
0
0
156
74
0
231
156
33
156
74
0
156
74
0
231
156
33
231
156
33
231
156
33
156
74
0
156
74
0
0
0
0
0
0
0
0
66
74
0
66
74
0
66
74
0
66
74
0
0
0
156
74
0
156
74
0
0
0
0
156
74
0
156
74
0
231
156
33
231
156
33
231
156
33
156
74
0
156
74
0
156
74
0
0
0
0
0
66
74
0
66
74
0
66
74
0
0
0
156
74
0
0
0
0
231
156
33
0
0
0
156
74
0
231
156
33
231
156
33
231
156
33
231
156
33
231
156
33
156
74
0
156
74
0
0
0
0
0
66
74
0
0
0
231
156
33
156
74
0
0
0
0
231
156
33
0
0
0
156
74
0
231
156
33
231
156
33
231
156
33
231
156
33
231
156
33
231
156
33
156
74
0
0
0
0
0
66
74
0
0
0
231
156
33
156
74
0
156
74
0
0
0
0
156
74
0
156
74
0
231
156
33
231
156
33
231
156
33
231
156
33
231
156
33
231
156
33
156
74
0
156
74
0
0
0
0
0
0
0
231
156
33
231
156
33
231
156
33
156
74
0
156
74
0
231
156
33
231
156
33
231
156
33
231
156
33
231
156
33
231
156
33
231
156
33
231
156
33
156
74
0
0
0
0
0
0
0
0
0
0
231
156
33
231
156
33
156
74
0
231
156
33
231
156
33
231
156
33
231
156
33
231
156
33
231
156
33
231
156
33
231
156
33
231
156
33
156
74
0
0
0
0
0
0
0
156
74
0
0
0
0
156
74
0
231
156
33
231
156
33
231
156
33
231
156
33
231
156
33
231
156
33
231
156
33
231
156
33
231
156
33
156
74
0
156
74
0
0
0
0
0
0
0
231
156
33
0
0
0
156
74
0
231
156
33
231
156
33
231
156
33
156
74
0
156
74
0
156
74
0
231
156
33
231
156
33
231
156
33
156
74
0
0
0
0
0
0
0
0
0
0
231
156
33
0
0
0
156
74
0
231
156
33
231
156
33
156
74
0
156
74
0
156
74
0
156
74
0
156
74
0
231
156
33
231
156
33
156
74
0
0
0
0
0
66
74
0
0
0
156
74
0
0
0
0
156
74
0
156
74
0
156
74
0
156
74
0
156
74
0
0
0
0
156
74
0
156
74
0
156
74
0
156
74
0
156
74
0
0
0
0
0
66
74
0
66
74
0
0
0
0
0
0
156
74
0
231
156
33
231
156
33
156
74
0
0
0
0
0
66
74
0
0
0
156
74
0
231
156
33
231
156
33
156
74
0
0
0
0
0
66
74
0
66
74
0
66
74
0
0
0
0
0
0
0
0
0
0
0
0
0
0
0
0
66
74
0
66
74
0
66
74
0
0
0
0
0
0
0
0
0
0
0
0
0
66
74
0
66
74
