P3
# Created by GIMP version 2.10.36 PNM plug-in
16 16
255
66
66
255
66
66
255
66
66
255
66
66
255
66
66
255
66
66
255
214
214
255
148
148
255
148
148
255
148
148
255
148
148
255
148
148
255
148
148
255
148
148
255
66
66
255
66
66
255
66
66
255
66
66
255
66
66
255
66
66
255
66
66
255
214
214
255
214
214
255
214
214
255
148
148
255
148
148
255
148
148
255
148
148
255
148
148
255
66
66
255
66
66
255
66
66
255
66
66
255
66
66
255
66
66
255
66
66
255
66
66
255
214
214
255
214
214
255
214
214
255
214
214
255
148
148
255
148
148
255
148
148
255
66
66
255
66
66
255
66
66
255
66
66
255
66
66
255
66
66
255
66
66
255
66
66
255
214
214
255
214
214
255
214
214
255
214
214
255
214
214
255
214
214
255
148
148
255
66
66
255
66
66
255
66
66
255
66
66
255
66
66
255
66
66
255
66
66
255
66
66
255
66
66
255
214
214
255
214
214
255
214
214
255
214
214
255
214
214
255
214
214
255
148
148
255
148
148
255
66
66
255
66
66
255
66
66
255
66
66
255
66
66
255
66
66
255
66
66
255
214
214
255
214
214
255
214
214
255
214
214
255
214
214
255
214
214
255
148
148
255
148
148
255
148
148
255
148
148
255
66
66
255
66
66
255
66
66
255
66
66
255
66
66
255
66
66
255
214
214
255
214
214
255
214
214
255
214
214
255
214
214
255
148
148
255
148
148
255
148
148
255
148
148
255
148
148
255
148
148
255
66
66
255
66
66
255
66
66
255
66
66
255
214
214
255
214
214
255
214
214
255
148
148
255
148
148
255
148
148
255
66
66
255
66
66
255
66
66
255
66
66
255
148
148
255
148
148
255
148
148
255
66
66
255
66
66
255
148
148
255
148
148
255
148
148
255
148
148
255
148
148
255
148
148
255
148
148
255
66
66
255
66
66
255
66
66
255
66
66
255
66
66
255
66
66
255
66
66
255
214
214
255
148
148
255
66
66
255
148
148
255
148
148
255
148
148
255
148
148
255
148
148
255
66
66
255
66
66
255
66
66
255
66
66
255
66
66
255
66
66
255
66
66
255
214
214
255
214
214
255
148
148
255
66
66
255
148
148
255
148
148
255
148
148
255
148
148
255
148
148
255
66
66
255
66
66
255
66
66
255
66
66
255
66
66
255
148
148
255
214
214
255
214
214
255
214
214
255
148
148
255
148
148
255
66
66
255
148
148
255
148
148
255
148
148
255
148
148
255
66
66
255
66
66
255
66
66
255
66
66
255
214
214
255
214
214
255
214
214
255
214
214
255
148
148
255
148
148
255
148
148
255
66
66
255
148
148
255
148
148
255
148
148
255
66
66
255
66
66
255
66
66
255
148
148
255
214
214
255
214
214
255
214
214
255
214
214
255
214
214
255
148
148
255
148
148
255
148
148
255
148
148
255
66
66
255
148
148
255
148
148
255
66
66
255
66
66
255
214
214
255
214
214
255
214
214
255
214
214
255
214
214
255
214
214
255
214
214
255
148
148
255
148
148
255
148
148
255
148
148
255
66
66
255
148
148
255
66
66
255
148
148
255
214
214
255
214
214
255
214
214
255
214
214
255
214
214
255
148
148
255
148
148
255
148
148
255
148
148
255
66
66
255
66
66
255
148
148
255
148
148
255
66
66
255
214
214
255
214
214
255
214
214
255
214
214
255
148
148
255
148
148
255
148
148
255
148
148
255
148
148
255
148
148
255
66
66
255
